<?xml version="1.0" encoding="UTF-8"?>
<svg viewBox="0 0 314 240" version="1.1" xmlns="http://www.w3.org/2000/svg" xmlns:xlink="http://www.w3.org/1999/xlink">
    <defs>
        <path d="M51.37887,30.44439 L51.37887,30.41016 C51.37887,22.60572 57.43758,17.23161 64.59165,17.23161 C72.01956,17.23161 77.80443,22.91379 77.80443,30.3417 C77.80443,37.76961 72.05379,43.45179 64.59165,43.45179 C57.09528,43.45179 51.37887,37.66692 51.37887,30.44439 Z M54.21996,30.30747 L54.21996,30.3417 C54.21996,36.29772 58.70409,40.953 64.62588,40.953 C70.61613,40.953 74.99757,36.12657 74.99757,30.3417 C74.99757,24.55683 70.61613,19.7304 64.59165,19.7304 C58.63563,19.7304 54.21996,24.45414 54.21996,30.30747 Z M89.46704,43.0068 L89.46704,17.6766 L96.07343,17.6766 C100.04411,17.6766 101.89253,18.15582 103.19327,18.97734 C105.24707,20.20962 106.6505,22.91379 106.6505,25.78911 C106.68473,27.50061 106.20551,29.3148 105.14438,30.75246 C103.63826,32.80626 101.82407,33.28548 99.49643,33.52509 L105.79475,43.0068 L102.71405,43.0068 L95.55998,31.95051 L96.3815,31.95051 C98.16146,31.95051 100.62602,31.91628 101.99522,30.64977 C103.33019,29.34903 103.9121,27.80868 103.9121,25.99449 C103.9121,24.11184 102.98789,22.1265 101.41331,21.0996 C100.1468,20.27808 98.57222,20.17539 96.27881,20.17539 L92.30813,20.17539 L92.30813,43.0068 L89.46704,43.0068 Z M117.83389,43.0068 L117.83389,17.6766 L120.67498,17.6766 L120.67498,40.50801 L130.32784,40.50801 L130.32784,43.0068 L117.83389,43.0068 Z M140.99778,43.0068 L140.99778,17.6766 L155.03208,17.6766 L155.03208,20.17539 L143.80464,20.17539 L143.80464,28.9725 L154.96362,28.9725 L154.96362,31.47129 L143.80464,31.47129 L143.80464,40.50801 L155.03208,40.50801 L155.03208,43.0068 L140.99778,43.0068 Z M143.59926,14.49321 L151.746,9.87216 L152.67021,11.72058 L144.42078,16.13625 L143.59926,14.49321 Z M171.21305,35.88696 L168.3035,43.0068 L165.25703,43.0068 L175.8341,17.6766 L178.5725,17.6766 L189.04688,43.0068 L185.96618,43.0068 L183.0224,35.88696 L171.21305,35.88696 Z M182.16665,33.55932 L177.10061,20.85999 L172.0688,33.55932 L182.16665,33.55932 Z M202.72906,17.6766 L217.58488,38.83074 L217.55065,17.6766 L220.28905,17.6766 L220.28905,43.0068 L217.55065,43.0068 L202.52368,21.68151 L202.59214,43.0068 L199.85374,43.0068 L199.85374,17.6766 L202.72906,17.6766 Z M232.12281,35.95542 L234.9639,35.95542 C235.37466,40.16571 238.45536,41.05569 240.02994,41.05569 C242.66565,41.05569 245.09598,39.03612 245.09598,36.22926 C245.09598,32.66934 242.04951,31.88205 239.10573,30.92361 C237.05193,30.30747 232.63626,29.00673 232.63626,24.21453 C232.5678,19.7304 236.29887,17.23161 240.16686,17.23161 C243.31602,17.23161 246.9444,18.97734 247.35516,23.76954 L244.5483,23.76954 C244.24023,22.1265 243.41871,19.62771 240.06417,19.62771 C237.53115,19.62771 235.44312,21.33921 235.44312,23.97492 C235.40889,27.05562 237.90768,27.80868 241.74144,29.10942 C244.13754,30.03363 247.90284,31.3686 247.90284,36.02388 C247.90284,40.16571 244.78791,43.45179 240.06417,43.45179 C235.81965,43.45179 232.29396,40.78185 232.12281,35.95542 Z" id="path-1"></path>
    </defs>
    <g id="Page-1" stroke="none" stroke-width="1" fill="none" fill-rule="evenodd">
        <g id="logo" transform="translate(0.000000, 1.000000)" fill-rule="nonzero">
            <polygon id="Path" fill="#616161" points="0 122.877 0 94.97 27.909 94.97 27.909 122.877"></polygon>
            <path d="M50.717,84.884 L50.717,75.759 L58.751,75.759 L58.751,64.451 L68.969,63.46 L68.969,75.759 L87.518,75.759 L87.518,84.884 L68.969,84.884 L68.969,104.722 C68.969,108.36 69.329,110.922 70.057,112.411 C70.787,113.898 72.272,114.644 74.522,114.644 C78.423,114.644 82.987,114.014 88.211,112.758 L89.896,121.587 C84.144,123.107 79.017,123.867 74.521,123.867 C68.174,123.867 63.959,122.447 61.875,119.602 C59.791,116.759 58.75,111.8 58.75,104.72 L58.75,84.884 L50.717,84.884 Z" id="Path" fill="#616161"></path>
            <path d="M107.712,81.166 C111.285,77.033 116.244,74.966 122.595,74.966 C128.942,74.966 133.852,76.837 137.324,80.57 C140.796,84.307 142.597,89.781 142.731,96.986 L142.333,104.328 L113.37,104.328 C113.965,111.471 117.535,115.04 124.081,115.04 C128.643,115.04 133.473,114.214 138.565,112.561 L140.647,121.19 C138.531,121.919 135.79,122.563 132.415,123.126 C129.044,123.686 126.264,123.968 124.081,123.968 C109.601,123.968 102.359,115.768 102.359,99.369 C102.358,91.366 104.143,85.3 107.712,81.166 Z M122.989,84.19 C119.88,84.19 117.55,85.1 115.996,86.919 C114.444,88.74 113.569,91.763 113.369,95.994 L131.72,95.994 C131.72,88.127 128.809,84.19 122.989,84.19 Z" id="Shape" fill="#616161"></path>
            <path d="M183.824,92.92 L183.824,84.787 C182.303,84.524 180.815,84.388 179.359,84.388 C175.259,84.388 172.402,85.58 170.779,87.959 C169.161,90.34 168.35,94.11 168.35,99.269 C168.35,104.426 169.193,108.245 170.88,110.723 C172.566,113.203 175.526,114.443 179.759,114.443 C183.988,114.443 188.32,113.851 192.752,112.659 L194.239,122.182 C189.612,123.503 184.648,124.165 179.358,124.165 C164.679,124.165 157.338,115.899 157.338,99.367 C157.338,90.835 159.008,84.605 162.347,80.667 C165.688,76.734 171.258,74.764 179.062,74.764 C184.088,74.764 188.916,75.395 193.544,76.65 L193.544,92.92 L183.824,92.92 Z" id="Path" fill="#616161"></path>
            <g id="ORLÉANS" fill="#616161">
                <use xlink:href="#path-1"></use>
                <use xlink:href="#path-1"></use>
            </g>
            <path d="M240.675,122.877 L248.916,108.438 L248.916,94.408 C248.916,88.061 247.743,83.234 245.395,79.926 C243.048,76.62 239.031,74.967 233.343,74.967 C230.3,74.967 226.102,76.159 220.746,78.538 L220.746,56.714 L210.528,56.714 L210.528,122.877 L220.746,122.877 L220.746,88.16 C225.507,85.777 229.507,84.587 232.748,84.587 C234.532,84.587 235.973,85.499 237.062,87.316 C238.153,89.135 238.7,91.435 238.7,94.21 L238.7,122.878 L240.675,122.878 L240.675,122.877 Z" id="Path" fill="#616161"></path>
            <path d="M223.037,154.76 L311.135,0.364" id="Path" stroke="#616161" stroke-width="2.2177" fill="#616161"></path>
        </g>
    </g>
</svg>
